<svg width="10" height="10" viewBox="0 0 10 10" fill="none" xmlns="http://www.w3.org/2000/svg">
<path d="M4.88905 7.01045C4.69378 7.20571 4.69378 7.52229 4.88905 7.71755C5.08431 7.91281 5.40089 7.91281 5.59615 7.71755L7.71747 5.59623C7.91274 5.40097 7.91274 5.08439 7.71747 4.88913C7.52221 4.69386 7.20563 4.69386 7.01037 4.88913L4.88905 7.01045Z" fill="#808080"/>
<path d="M1.35354 7.01045C1.15828 7.20571 1.15828 7.52229 1.35354 7.71755C1.5488 7.91281 1.86538 7.91281 2.06065 7.71755L7.7175 2.0607C7.91276 1.86544 7.91276 1.54885 7.7175 1.35359C7.52224 1.15833 7.20566 1.15833 7.01039 1.35359L1.35354 7.01045Z" fill="#808080"/>
</svg>
