<svg
  width="192"
  height="48"
  viewBox="0 0 192 48"
  fill="none"
  xmlns="http://www.w3.org/2000/svg"
  id="svg"
>
  <path
    d="M168 30.0001L164.528 31.9867C165.241 33.2318 166.565 34.0001 168 34.0001C169.435 34.0001 170.759 33.2318 171.472 31.9867L168 30.0001ZM156 12H152V16H156V12ZM178.3 12V8H175.98L174.828 10.0134L178.3 12ZM180 12V16H184V12H180ZM157.7 12L161.172 10.0134L160.02 8H157.7V12ZM152 8V40.0001H160V8H152ZM176 8L176 40.0001L184 40.0001L184 8L176 8ZM152 8V12L160 12V8H152ZM171.472 31.9867L181.772 13.9866L174.828 10.0134L164.528 28.0134L171.472 31.9867ZM178.3 16H180V8H178.3V16ZM184 12V8H176V12H184ZM156 16H157.7V8H156V16ZM154.228 13.9866L164.528 31.9867L171.472 28.0134L161.172 10.0134L154.228 13.9866Z"
    fill="currentColor"
  />
  <path
    d="M144 8V36H132C130.424 36 128.864 35.6896 127.408 35.0866C125.952 34.4835 124.629 33.5996 123.515 32.4853C122.4 31.371 121.517 30.0481 120.913 28.5922C120.31 27.1363 120 25.5759 120 24V8"
    stroke="currentColor"
    stroke-width="8"
  />
  <path
    d="M108.243 34.2426C107.686 34.7998 107.024 35.2417 106.296 35.5433C105.568 35.8448 104.788 36 104 36L90 36C89.2121 36 88.4319 35.8448 87.7039 35.5433C86.976 35.2417 86.3145 34.7998 85.7574 34.2426C85.2002 33.6855 84.7583 33.0241 84.4568 32.2961C84.1552 31.5681 84 30.7879 84 30L84 18C84 17.2121 84.1552 16.4319 84.4568 15.7039C84.7583 14.9759 85.2002 14.3145 85.7574 13.7574C86.3145 13.2002 86.976 12.7583 87.7039 12.4567C88.4319 12.1552 89.2121 12 90 12L102 12C102.788 12 103.568 12.1552 104.296 12.4567C105.024 12.7583 105.686 13.2002 106.243 13.7574C106.8 14.3145 107.242 14.9759 107.543 15.7039C107.845 16.4319 108 17.2121 108 18C108 18.7879 107.845 19.5681 107.543 20.2961C107.242 21.0241 106.8 21.6855 106.243 22.2426C105.686 22.7998 105.024 23.2417 104.296 23.5433C103.568 23.8448 102.788 24 102 24L88 24"
    stroke="currentColor"
    stroke-width="8"
  />
  <path
    d="M48 40V12L64 12C65.0506 12 66.0909 12.2069 67.0615 12.609C68.0321 13.011 68.914 13.6003 69.6569 14.3431C70.3997 15.086 70.989 15.9679 71.391 16.9385C71.7931 17.9091 72 18.9494 72 20C72 21.0506 71.7931 22.0909 71.391 23.0615C70.989 24.0321 70.3997 24.914 69.6569 25.6569C68.914 26.3997 68.0321 26.989 67.0615 27.391C66.0909 27.7931 65.0506 28 64 28H60M52 28H60M60 28C61.5759 28 63.1363 28.3104 64.5922 28.9134C66.0481 29.5165 67.371 30.4004 68.4853 31.5147C69.5996 32.629 70.4835 33.9519 71.0866 35.4078C71.6896 36.8637 72 38.4241 72 40"
    stroke="currentColor"
    stroke-width="8"
  />
  <path
    d="M12 18V24C12 26.3734 12.7038 28.6934 14.0223 30.6668C15.3409 32.6402 17.2151 34.1783 19.4078 35.0866C21.6005 35.9948 24.0133 36.2324 26.3411 35.7694C28.6688 35.3064 30.807 34.1635 32.4853 32.4853C34.1635 30.8071 35.3064 28.6689 35.7694 26.3411C36.2324 24.0133 35.9948 21.6005 35.0866 19.4078C34.1783 17.2151 32.6402 15.3409 30.6668 14.0224C28.6934 12.7038 26.3734 12 24 12L7.99999 12"
    stroke="currentColor"
    stroke-width="8"
  />
</svg>
