<svg xmlns="http://www.w3.org/2000/svg">
  <symbol id="blob">
    <path d="M18 4H6C4.89 4 4 4.9 4 6V18C4 19.1 4.89 20 6 20H18C19.1 20 20 19.1 20 18V6C20 4.9 19.11 4 18 4Z" />
  </symbol>
  <symbol id="dropdown-arrow">
    <path d="M12.7094 14.4748C12.3188 14.8653 11.6857 14.8653 11.2951 14.4748L7.75952 10.9392C7.12956 10.3092 7.57365 9.22998 8.46456 9.22998H15.5398C16.4307 9.23008 16.8749 10.3092 16.2449 10.9392L12.7094 14.4748Z" />
  </symbol>
  <symbol id="collapse-arrow">
    <path d="M12.7073 14.4728C12.3167 14.8633 11.6836 14.8633 11.293 14.4728L7.75747 10.9371C7.36697 10.5466 7.36697 9.91346 7.75747 9.52286C8.14797 9.13236 8.78117 9.13236 9.17167 9.52286L12.0002 12.3514L14.8286 9.52306C15.2191 9.13246 15.8523 9.13246 16.2428 9.52306C16.6333 9.91356 16.6333 10.5467 16.2428 10.9373L12.7073 14.4728Z" />
  </symbol>
  <symbol id="user">
    <path d="M3 20C3 17.2386 5.23858 15 8 15H16C18.7614 15 21 17.2386 21 20V20C21 20.5523 20.5523 21 20 21H4C3.44772 21 3 20.5523 3 20V20Z" />
    <circle cx="12" cy="9" r="5" />
  </symbol>
  <symbol id="new-user">
    <use href="#user" />
    <path d="M18 12C18 12.5523 18.4477 13 19 13H20L20 14C20 14.5523 20.4477 15 21 15C21.5523 15 22 14.5523 22 14V13H23C23.5523 13 24 12.5523 24 12C24 11.4477 23.5523 11 23 11H22V10C22 9.44772 21.5523 9 21 9C20.4477 9 20 9.44772 20 10V11H19C18.4477 11 18 11.4477 18 12Z" />
  </symbol>
  <symbol id="copy">
    <path
      fill-rule="evenodd"
      clip-rule="evenodd"
      d="M10 8H18C19.11 8 20 8.9 20 10V18C20 19.1 19.1 20 18 20H10C8.89 20 8 19.1 8 18V10C8 8.9 8.89 8 10 8ZM11 18C10.4477 18 10 17.5523 10 17V11C10 10.4477 10.4477 10 11 10H17C17.5523 10 18 10.4477 18 11V17C18 17.5523 17.5523 18 17 18H11Z"
    />
    <path
      d="M14 4H6C4.89 4 4 4.9 4 6V14C4 15.1 4.89 16 6 16V7C6 6.44772 6.44772 6 7 6H16C16 4.9 15.11 4 14 4Z"
    />
  </symbol>
  <symbol id="erase">
    <path
      fill-rule="evenodd"
      clip-rule="evenodd"
      d="M21.506 10.8996C22.2871 10.1185 22.2871 8.85221 21.506 8.07116L15.8492 2.4143C15.0681 1.63325 13.8018 1.63325 13.0207 2.4143L2.41411 13.0209C1.63306 13.802 1.63307 15.0683 2.41411 15.8493L5.5648 19L7.27189 20.7071C7.45943 20.8946 7.71379 21 7.979 21H11.4056L22 21L22 19L13.4056 19L21.506 10.8996ZM14.4349 15.1422L8.77805 9.48537L4.53543 13.728C4.14491 14.1185 4.14491 14.7517 4.53543 15.1422L8.39319 19H10.5772L14.4349 15.1422Z"
    />
  </symbol>
  <symbol id="folder">
    <path
      d="M4 4C2.89 4 2 4.9 2 6V18C2 19.1 2.89 20 4 20H20C21.1 20 22 19.1 22 18V8C22 6.9 21.11 6 20 6H12L10 4H4Z"
    />
  </symbol>
  <symbol id="folder-empty">
    <path
      fill-rule="evenodd"
      clip-rule="evenodd"
      d="M2 6C2 4.9 2.89 4 4 4H10L12 6H20C21.11 6 22 6.9 22 8V18C22 19.1 21.1 20 20 20H4C2.89 20 2 19.1 2 18V6ZM5 18C4.44772 18 4 17.5523 4 17V7C4 6.44772 4.44772 6 5 6H9.17L11.17 8H19C19.5523 8 20 8.44772 20 9V17C20 17.5523 19.5523 18 19 18H5Z"
    />
  </symbol>
  <symbol id="folder-transparent">
    <use href="#folder" opacity="0.25" />
    <use href="#folder-empty" />
  </symbol>
  <symbol id="dot">
    <path d="M13 10H11C10.4477 10 10 10.4477 10 11V13C10 13.5523 10.4477 14 11 14H13C13.5523 14 14 13.5523 14 13V11C14 10.4477 13.5523 10 13 10Z" />
  </symbol>
  <symbol id="plus">
    <path d="M13 7C13 6.44772 12.5523 6 12 6V6C11.4477 6 11 6.44772 11 7V11H7C6.44772 11 6 11.4477 6 12V12C6 12.5523 6.44772 13 7 13H11V17C11 17.5523 11.4477 18 12 18V18C12.5523 18 13 17.5523 13 17V13H17C17.5523 13 18 12.5523 18 12V12C18 11.4477 17.5523 11 17 11H13V7Z" />
  </symbol>
  <symbol id="cross">
    <path d="M9.1715 7.75736C8.78098 7.36684 8.14781 7.36684 7.75729 7.75736V7.75736C7.36676 8.14788 7.36676 8.78105 7.75729 9.17157L10.5857 12L7.75729 14.8284C7.36676 15.219 7.36676 15.8521 7.75729 16.2426V16.2426C8.14781 16.6332 8.78098 16.6332 9.1715 16.2426L11.9999 13.4142L14.8284 16.2426C15.2189 16.6332 15.852 16.6332 16.2426 16.2426V16.2426C16.6331 15.8521 16.6331 15.219 16.2426 14.8284L13.4141 12L16.2426 9.17157C16.6331 8.78105 16.6331 8.14788 16.2426 7.75736V7.75736C15.852 7.36683 15.2189 7.36683 14.8284 7.75736L11.9999 10.5858L9.1715 7.75736Z" />
  </symbol>
</svg>
