<svg xmlns="http://www.w3.org/2000/svg">
  <symbol id="blob">
    <path d="M18 4H6C4.89 4 4 4.9 4 6V18C4 19.1 4.89 20 6 20H18C19.1 20 20 19.1 20 18V6C20 4.9 19.11 4 18 4Z" />
  </symbol>
  <symbol id="select-arrow">
    <path d="M12.7071 14.2929C12.3165 14.6834 11.6834 14.6834 11.2928 14.2929L7.70705 10.7071C7.07709 10.0771 7.52325 9 8.41416 9L15.5857 9C16.4766 9 16.9228 10.0771 16.2928 10.7071L12.7071 14.2929Z" />
  </symbol>
  <symbol id="user">
    <path d="M3 20C3 17.2386 5.23858 15 8 15H16C18.7614 15 21 17.2386 21 20V20C21 20.5523 20.5523 21 20 21H4C3.44772 21 3 20.5523 3 20V20Z" />
    <circle cx="12" cy="9" r="5" />
  </symbol>
  <symbol id="new-user">
    <use href="#user" />
    <path d="M18 12C18 12.5523 18.4477 13 19 13H20L20 14C20 14.5523 20.4477 15 21 15C21.5523 15 22 14.5523 22 14V13H23C23.5523 13 24 12.5523 24 12C24 11.4477 23.5523 11 23 11H22V10C22 9.44772 21.5523 9 21 9C20.4477 9 20 9.44772 20 10V11H19C18.4477 11 18 11.4477 18 12Z" />
  </symbol>
</svg>