<svg xmlns="http://www.w3.org/2000/svg">
  <symbol id="blob">
    <path d="M18 4H6C4.89 4 4 4.9 4 6V18C4 19.1 4.89 20 6 20H18C19.1 20 20 19.1 20 18V6C20 4.9 19.11 4 18 4Z" />
  </symbol>
  <symbol id="select-arrow">
    <path d="M12.7071 14.2929C12.3165 14.6834 11.6834 14.6834 11.2928 14.2929L7.70705 10.7071C7.07709 10.0771 7.52325 9 8.41416 9L15.5857 9C16.4766 9 16.9228 10.0771 16.2928 10.7071L12.7071 14.2929Z" />
  </symbol>
  <symbol id="user">
    <path d="M3 20C3 17.2386 5.23858 15 8 15H16C18.7614 15 21 17.2386 21 20V20C21 20.5523 20.5523 21 20 21H4C3.44772 21 3 20.5523 3 20V20Z" />
    <circle cx="12" cy="9" r="5" />
  </symbol>
  <symbol id="new-user">
    <use href="#user" />
    <path d="M18 12C18 12.5523 18.4477 13 19 13H20L20 14C20 14.5523 20.4477 15 21 15C21.5523 15 22 14.5523 22 14V13H23C23.5523 13 24 12.5523 24 12C24 11.4477 23.5523 11 23 11H22V10C22 9.44772 21.5523 9 21 9C20.4477 9 20 9.44772 20 10V11H19C18.4477 11 18 11.4477 18 12Z" />
  </symbol>
  <symbol id="copy-small">
    <path d="M8.5 1H2C1.45 1 1 1.45 1 2V8.5C1 8.775 1.225 9 1.5 9C1.775 9 2 8.775 2 8.5V2.5C2 2.225 2.225 2 2.5 2H8.5C8.775 2 9 1.775 9 1.5C9 1.225 8.775 1 8.5 1ZM10 3H4C3.45 3 3 3.45 3 4V10C3 10.55 3.45 11 4 11H10C10.55 11 11 10.55 11 10V4C11 3.45 10.55 3 10 3ZM9.5 10H4.5C4.225 10 4 9.775 4 9.5V4.5C4 4.225 4.225 4 4.5 4H9.5C9.775 4 10 4.225 10 4.5V9.5C10 9.775 9.775 10 9.5 10Z" />
  </symbol>
  <symbol id="erase">
    <path
      fill-rule="evenodd"
      clip-rule="evenodd"
      d="M21.506 10.8996C22.2871 10.1185 22.2871 8.85221 21.506 8.07116L15.8492 2.4143C15.0681 1.63325 13.8018 1.63325 13.0207 2.4143L2.41411 13.0209C1.63306 13.802 1.63307 15.0683 2.41411 15.8493L5.5648 19L7.27189 20.7071C7.45943 20.8946 7.71379 21 7.979 21H11.4056L22 21L22 19L13.4056 19L21.506 10.8996ZM14.4349 15.1422L8.77805 9.48537L4.53543 13.728C4.14491 14.1185 4.14491 14.7517 4.53543 15.1422L8.39319 19H10.5772L14.4349 15.1422Z"
    />
  </symbol>
</svg>