<svg width="16" height="16" viewBox="0 0 16 16" fill="none" xmlns="http://www.w3.org/2000/svg">
<g clip-path="url(#clip0_165_7)">
<path fill-rule="evenodd" clip-rule="evenodd" d="M0 6.99378e-07L3.4969e-07 4H8C10.2091 4 12 5.79086 12 8C12 8.72857 11.8052 9.41165 11.4649 10H15.748C15.9125 9.36076 16 8.6906 16 8C16 3.58172 12.4183 0 8 0L0 6.99378e-07ZM13 14.2454V13H12H11L10.5 13.5V15.6016C11.4179 15.2999 12.2624 14.8366 13 14.2454ZM7 15.9381L6 15H5H4.12398C4.99571 15.4837 5.96729 15.8093 7 15.9381ZM2.70834 14L4.53514 10C4.19479 9.41165 4 8.72857 4 8V5H1.39078e-06L6.99378e-07 8C6.99378e-07 10.3894 1.04751 12.5341 2.70834 14ZM7.5 11.9691L8 13L8.49999 11.9691C8.3362 11.9895 8.16933 12 8 12C7.83067 12 7.6638 11.9895 7.5 11.9691Z" fill="white"/>
<path d="M9 9.5H8.5V10V15V15.5H9H10H10.5V15V13.5H11C11.2626 13.5 11.5227 13.4483 11.7654 13.3478C12.008 13.2473 12.2285 13.0999 12.4142 12.9142C12.5999 12.7285 12.7472 12.508 12.8478 12.2654C12.9483 12.0227 13 11.7626 13 11.5C13 11.2374 12.9483 10.9773 12.8478 10.7346C12.7472 10.492 12.5999 10.2715 12.4142 10.0858C12.2285 9.90007 12.008 9.75275 11.7654 9.65224C11.5227 9.55173 11.2626 9.5 11 9.5H10H9Z" stroke="white"/>
<path d="M10 11H11C11.0657 11 11.1307 11.0129 11.1913 11.0381C11.252 11.0632 11.3071 11.1 11.3536 11.1464C11.4 11.1929 11.4368 11.248 11.4619 11.3087C11.4871 11.3693 11.5 11.4343 11.5 11.5C11.5 11.5657 11.4871 11.6307 11.4619 11.6913C11.4368 11.752 11.4 11.8071 11.3536 11.8536C11.3071 11.9 11.252 11.9368 11.1913 11.9619C11.1307 11.9871 11.0657 12 11 12L10 12V11Z" fill="white"/>
<path d="M14 9.5H13.5V10V15V15.5H14H15H15.5V15V10V9.5H15H14Z" stroke="white"/>
<path d="M5.99999 9.5H6.33851L6.46423 9.8143L8.46423 14.8143L8.73851 15.5H7.99999H6.99999H6.66147L6.53575 15.1857L6.26147 14.5H4.73851L4.46423 15.1857L4.33851 15.5H3.99999H2.99999H2.26147L2.53575 14.8143L4.53575 9.8143L4.66147 9.5H4.99999H5.99999Z" stroke="white"/>
<path fill-rule="evenodd" clip-rule="evenodd" d="M4.75 13L5.5 11L6.25 13H4.75Z" fill="white"/>
</g>
<defs>
<clipPath id="clip0_165_7">
<rect width="16" height="16" fill="white"/>
</clipPath>
</defs>
</svg>
