<svg width="16" height="16" viewBox="0 0 16 16" fill="none" xmlns="http://www.w3.org/2000/svg">
  <g clip-path="url(#clip0_434_17)">
    <path d="M3.4969e-07 4L0 6.99378e-07L8 0C12.4183 0 16 3.58172 16 8C16 12.4183 12.4183 16 8 16C3.58172 16 6.99378e-07 12.4183 6.99378e-07 8L1.39078e-06 5H4V8C4 10.2091 5.79086 12 8 12C10.2091 12 12 10.2091 12 8C12 5.79086 10.2091 4 8 4H3.4969e-07Z"
          fill="white" />
    <path d="M15.5 12.9996V10.0004C15.5 9.86763 15.4473 9.74017 15.3533 9.64615L13.3538 7.64674C13.2599 7.55281 13.1325 7.5 12.9996 7.5H10.0004C9.86763 7.5 9.74017 7.55272 9.64615 7.64674L7.64674 9.64615C7.55281 9.74008 7.5 9.8675 7.5 10.0004V12.9996C7.5 13.1324 7.55272 13.2598 7.64674 13.3538L9.64615 15.3533C9.74008 15.4472 9.8675 15.5 10.0004 15.5H12.9996C13.1324 15.5 13.2598 15.4473 13.3538 15.3533L15.3533 13.3538C15.4472 13.2599 15.5 13.1325 15.5 12.9996Z"
          fill="#FF2E57"
          stroke="white" />
    <rect x="11" y="13" width="1" height="1" rx="0.5" fill="white" />
    <rect x="11" y="9" width="1" height="3" rx="0.5" fill="white" />
  </g>
  <defs>
    <clipPath id="clip0_434_17">
      <rect width="16" height="16" fill="white" />
    </clipPath>
  </defs>
</svg>
