<svg width="16" height="16" viewBox="0 0 16 16" fill="none" xmlns="http://www.w3.org/2000/svg">
  <path d="M3.4969e-07 4L0 6.99378e-07L8 0C12.4183 0 16 3.58172 16 8C16 12.4183 12.4183 16 8 16C3.58172 16 6.99378e-07 12.4183 6.99378e-07 8L1.39078e-06 5H4V8C4 10.2091 5.79086 12 8 12C10.2091 12 12 10.2091 12 8C12 5.79086 10.2091 4 8 4H3.4969e-07Z"
        fill="black" />
  <circle cx="9" cy="13" r="2.5" fill="#6366F1" stroke="black"/>
  <circle cx="13" cy="13" r="2.5" fill="#14B8A6" stroke="black"/>
</svg>
